<svg width="480" height="437" viewBox="0 0 480 437" fill="none" xmlns="http://www.w3.org/2000/svg">
<path d="M130.909 0H174.545V43.6364H130.909V0Z" fill="#FF97BD"/>
<path d="M174.545 43.6364H218.182V87.2727H174.545V43.6364Z" fill="#FF97BD"/>
<path d="M218.182 43.6364H261.818V87.2727H218.182V43.6364Z" fill="#FF97BD"/>
<path d="M261.818 43.6364H305.455V87.2727H261.818V43.6364Z" fill="#FF97BD"/>
<path d="M174.545 87.2727H218.182V130.909H174.545V87.2727Z" fill="#FF97BD"/>
<path d="M130.909 87.2727H174.545V130.909H130.909V87.2727Z" fill="#FF97BD"/>
<path d="M218.182 87.2727H261.818V130.909H218.182V87.2727Z" fill="#FF97BD"/>
<path d="M261.818 87.2727H305.455V130.909H261.818V87.2727Z" fill="#FF97BD"/>
<path d="M305.455 87.2727H349.091V130.909H305.455V87.2727Z" fill="#FF97BD"/>
<path d="M174.545 130.909H218.182V174.545H174.545V130.909Z" fill="#FF97BD"/>
<path d="M130.909 130.909H174.545V174.545H130.909V130.909Z" fill="#FF97BD"/>
<path d="M87.2727 130.909H130.909V174.545H87.2727V130.909Z" fill="#FF97BD"/>
<path d="M218.182 130.909H261.818V174.545H218.182V130.909Z" fill="#FF97BD"/>
<path d="M261.818 130.909H305.455V174.545H261.818V130.909Z" fill="#FF97BD"/>
<path d="M305.455 130.909H349.091V174.545H305.455V130.909Z" fill="#FF97BD"/>
<path d="M349.091 130.909H392.727V174.545H349.091V130.909Z" fill="#FF97BD"/>
<path d="M174.545 174.545H218.182V218.182H174.545V174.545Z" fill="#FF97BD"/>
<path d="M87.2727 174.545H130.909V218.182H87.2727V174.545Z" fill="#FF97BD"/>
<path d="M43.6364 174.545H87.2727V218.182H43.6364V174.545Z" fill="#FF97BD"/>
<path d="M218.182 174.545H261.818V218.182H218.182V174.545Z" fill="#FF97BD"/>
<path d="M261.818 174.545H305.455V218.182H261.818V174.545Z" fill="#FF97BD"/>
<path d="M349.091 174.545H392.727V218.182H349.091V174.545Z" fill="#FF97BD"/>
<path d="M392.727 174.545H436.364V218.182H392.727V174.545Z" fill="#FF97BD"/>
<path d="M174.545 218.182H218.182V261.818H174.545V218.182Z" fill="#FF97BD"/>
<path d="M130.909 218.182H174.545V261.818H130.909V218.182Z" fill="#FF97BD"/>
<path d="M87.2727 218.182H130.909V261.818H87.2727V218.182Z" fill="#FF97BD"/>
<path d="M43.6364 218.182H87.2727V261.818H43.6364V218.182Z" fill="#FF97BD"/>
<path d="M0 218.182H43.6364V261.818H0V218.182Z" fill="#FF97BD"/>
<path d="M218.182 218.182H261.818V261.818H218.182V218.182Z" fill="#FF97BD"/>
<path d="M261.818 218.182H305.455V261.818H261.818V218.182Z" fill="#FF97BD"/>
<path d="M305.455 218.182H349.091V261.818H305.455V218.182Z" fill="#FF97BD"/>
<path d="M349.091 218.182H392.727V261.818H349.091V218.182Z" fill="#FF97BD"/>
<path d="M174.545 261.818H218.182V305.455H174.545V261.818Z" fill="#FF97BD"/>
<path d="M130.909 261.818H174.545V305.455H130.909V261.818Z" fill="#FF97BD"/>
<path d="M130.909 305.455H174.545V349.091H130.909V305.455Z" fill="#FF97BD"/>
<path d="M87.2727 261.818H130.909V305.455H87.2727V261.818Z" fill="#FF97BD"/>
<path d="M218.182 261.818H261.818V305.455H218.182V261.818Z" fill="#FF97BD"/>
<path d="M261.818 261.818H305.455V305.455H261.818V261.818Z" fill="#FF97BD"/>
<path d="M305.455 261.818H349.091V305.455H305.455V261.818Z" fill="#FF97BD"/>
<path d="M305.455 305.455H349.091V349.091H305.455V305.455Z" fill="#FF97BD"/>
<path d="M349.091 261.818H392.727V305.455H349.091V261.818Z" fill="#FF97BD"/>
<path d="M174.545 349.091H218.182V392.727H174.545V349.091Z" fill="#FF97BD"/>
<path d="M130.909 349.091H174.545V392.727H130.909V349.091Z" fill="#FF97BD"/>
<path d="M87.2727 349.091H130.909V392.727H87.2727V349.091Z" fill="#FF97BD"/>
<path d="M218.182 349.091H261.818V392.727H218.182V349.091Z" fill="#FF97BD"/>
<path d="M261.818 349.091H305.455V392.727H261.818V349.091Z" fill="#FF97BD"/>
<path d="M305.455 349.091H349.091V392.727H305.455V349.091Z" fill="#FF97BD"/>
<path d="M349.091 349.091H392.727V392.727H349.091V349.091Z" fill="#FF97BD"/>
<path d="M130.909 392.727H174.545V436.364H130.909V392.727Z" fill="#FF97BD"/>
<path d="M43.6364 392.727H87.2727V436.364H43.6364V392.727Z" fill="#FF97BD"/>
<path d="M305.455 392.727H349.091V436.364H305.455V392.727Z" fill="#FF97BD"/>
<path d="M392.727 392.727H436.364V436.364H392.727V392.727Z" fill="#FF97BD"/>
<path d="M392.727 218.182H436.364V261.818H392.727V218.182Z" fill="#FF97BD"/>
<path d="M436.364 218.182H480V261.818H436.364V218.182Z" fill="#FF97BD"/>
<path d="M305.455 0H349.091V43.6364H305.455V0Z" fill="#FF97BD"/>
</svg>
