<svg width="614" height="891" viewBox="0 0 614 891" fill="none" xmlns="http://www.w3.org/2000/svg">
<path d="M264.909 0H308.545V43.6364H264.909V0Z" fill="#8BEAFF"/>
<path d="M308.545 43.6364H352.182V87.2727H308.545V43.6364Z" fill="#8BEAFF"/>
<path d="M352.182 43.6364H395.818V87.2727H352.182V43.6364Z" fill="#8BEAFF"/>
<path d="M395.818 43.6364H439.455V87.2727H395.818V43.6364Z" fill="#8BEAFF"/>
<path d="M308.545 87.2727H352.182V130.909H308.545V87.2727Z" fill="#8BEAFF"/>
<path d="M264.909 87.2727H308.545V130.909H264.909V87.2727Z" fill="#8BEAFF"/>
<path d="M352.182 87.2727H395.818V130.909H352.182V87.2727Z" fill="#8BEAFF"/>
<path d="M395.818 87.2727H439.455V130.909H395.818V87.2727Z" fill="#8BEAFF"/>
<path d="M439.455 87.2727H483.091V130.909H439.455V87.2727Z" fill="#8BEAFF"/>
<path d="M308.545 130.909H352.182V174.545H308.545V130.909Z" fill="#8BEAFF"/>
<path d="M264.909 130.909H308.545V174.545H264.909V130.909Z" fill="#8BEAFF"/>
<path d="M221.273 130.909H264.909V174.545H221.273V130.909Z" fill="#8BEAFF"/>
<path d="M352.182 130.909H395.818V174.545H352.182V130.909Z" fill="#8BEAFF"/>
<path d="M395.818 130.909H439.455V174.545H395.818V130.909Z" fill="#8BEAFF"/>
<path d="M439.455 130.909H483.091V174.545H439.455V130.909Z" fill="#8BEAFF"/>
<path d="M483.091 130.909H526.727V174.545H483.091V130.909Z" fill="#8BEAFF"/>
<path d="M308.545 174.545H352.182V218.182H308.545V174.545Z" fill="#8BEAFF"/>
<path d="M221.273 174.545H264.909V218.182H221.273V174.545Z" fill="#8BEAFF"/>
<path d="M177.636 174.545H221.273V218.182H177.636V174.545Z" fill="#8BEAFF"/>
<path d="M352.182 174.545H395.818V218.182H352.182V174.545Z" fill="#8BEAFF"/>
<path d="M395.818 174.545H439.455V218.182H395.818V174.545Z" fill="#8BEAFF"/>
<path d="M483.091 174.545H526.727V218.182H483.091V174.545Z" fill="#8BEAFF"/>
<path d="M526.727 174.545H570.364V218.182H526.727V174.545Z" fill="#8BEAFF"/>
<path d="M308.545 218.182H352.182V261.818H308.545V218.182Z" fill="#8BEAFF"/>
<path d="M264.909 218.182H308.545V261.818H264.909V218.182Z" fill="#8BEAFF"/>
<path d="M221.273 218.182H264.909V261.818H221.273V218.182Z" fill="#8BEAFF"/>
<path d="M177.636 218.182H221.273V261.818H177.636V218.182Z" fill="#8BEAFF"/>
<path d="M134 218.182H177.636V261.818H134V218.182Z" fill="#8BEAFF"/>
<path d="M352.182 218.182H395.818V261.818H352.182V218.182Z" fill="#8BEAFF"/>
<path d="M395.818 218.182H439.455V261.818H395.818V218.182Z" fill="#8BEAFF"/>
<path d="M439.455 218.182H483.091V261.818H439.455V218.182Z" fill="#8BEAFF"/>
<path d="M483.091 218.182H526.727V261.818H483.091V218.182Z" fill="#8BEAFF"/>
<path d="M308.545 261.818H352.182V305.455H308.545V261.818Z" fill="#8BEAFF"/>
<path d="M264.909 261.818H308.545V305.455H264.909V261.818Z" fill="#8BEAFF"/>
<path d="M264.909 305.455H308.545V349.091H264.909V305.455Z" fill="#8BEAFF"/>
<path d="M221.273 261.818H264.909V305.455H221.273V261.818Z" fill="#8BEAFF"/>
<path d="M352.182 261.818H395.818V305.455H352.182V261.818Z" fill="#8BEAFF"/>
<path d="M395.818 261.818H439.455V305.455H395.818V261.818Z" fill="#8BEAFF"/>
<path d="M439.455 261.818H483.091V305.455H439.455V261.818Z" fill="#8BEAFF"/>
<path d="M439.455 305.455H483.091V349.091H439.455V305.455Z" fill="#8BEAFF"/>
<path d="M483.091 261.818H526.727V305.455H483.091V261.818Z" fill="#8BEAFF"/>
<path d="M308.545 349.091H352.182V392.727H308.545V349.091Z" fill="#8BEAFF"/>
<path d="M264.909 349.091H308.545V392.727H264.909V349.091Z" fill="#8BEAFF"/>
<path d="M221.273 349.091H264.909V392.727H221.273V349.091Z" fill="#8BEAFF"/>
<path d="M352.182 349.091H395.818V392.727H352.182V349.091Z" fill="#8BEAFF"/>
<path d="M395.818 349.091H439.455V392.727H395.818V349.091Z" fill="#8BEAFF"/>
<path d="M439.455 349.091H483.091V392.727H439.455V349.091Z" fill="#8BEAFF"/>
<path d="M483.091 349.091H526.727V392.727H483.091V349.091Z" fill="#8BEAFF"/>
<path d="M264.909 392.727H308.545V436.364H264.909V392.727Z" fill="#8BEAFF"/>
<path d="M177.636 392.727H221.273V436.364H177.636V392.727Z" fill="#8BEAFF"/>
<path d="M439.455 392.727H483.091V436.364H439.455V392.727Z" fill="#8BEAFF"/>
<path d="M526.727 392.727H570.364V436.364H526.727V392.727Z" fill="#8BEAFF"/>
<path d="M526.727 218.182H570.364V261.818H526.727V218.182Z" fill="#8BEAFF"/>
<path d="M570.364 218.182H614V261.818H570.364V218.182Z" fill="#8BEAFF"/>
<path d="M439.455 0H483.091V43.6364H439.455V0Z" fill="#8BEAFF"/>
<rect x="180" y="711" width="20" height="20" transform="rotate(90 180 711)" fill="#8BEAFF"/>
<rect x="100" y="711" width="20" height="20" transform="rotate(90 100 711)" fill="#8BEAFF"/>
<rect x="20" y="711" width="20" height="20" transform="rotate(90 20 711)" fill="#8BEAFF"/>
<rect x="260" y="711" width="20" height="20" transform="rotate(90 260 711)" fill="#8BEAFF"/>
<rect x="340" y="711" width="20" height="20" transform="rotate(90 340 711)" fill="#8BEAFF"/>
<rect x="340" y="791" width="20" height="20" transform="rotate(90 340 791)" fill="#8BEAFF"/>
<rect x="340" y="871" width="20" height="20" transform="rotate(90 340 871)" fill="#8BEAFF"/>
</svg>
