<svg width="102" height="74" viewBox="0 0 102 74" fill="none" xmlns="http://www.w3.org/2000/svg">
<path d="M36.9163 18.432H46.1323V27.648H36.9163V18.432Z" fill="#16A6C5"/>
<path d="M27.7003 9.216H36.9163V18.432H27.7003V9.216Z" fill="#16A6C5"/>
<path d="M18.4842 0H27.7003V9.216H18.4842V0Z" fill="#16A6C5"/>
<path d="M46.1323 18.432H55.3483V27.648H46.1323V18.432Z" fill="#16A6C5"/>
<path d="M18.4842 18.432H27.7003V27.648H18.4842V18.432Z" fill="#16A6C5"/>
<path d="M9.26825 27.648H18.4842V36.864H9.26825V27.648Z" fill="#16A6C5"/>
<path d="M27.7003 18.432H36.9163V27.648H27.7003V18.432Z" fill="#16A6C5"/>
<path d="M64.5643 18.432H73.7803V27.648H64.5643V18.432Z" fill="#16A6C5"/>
<path d="M73.7803 18.432H82.9963V27.648H73.7803V18.432Z" fill="#16A6C5"/>
<path d="M82.9963 27.648H92.2123V36.864H82.9963V27.648Z" fill="#16A6C5"/>
<path d="M92.2123 36.864H101.428V46.08H92.2123V36.864Z" fill="#16A6C5"/>
<path d="M92.2123 46.08H101.428V55.296H92.2123V46.08Z" fill="#16A6C5"/>
<path d="M92.2123 55.296H101.428V64.512H92.2123V55.296Z" fill="#16A6C5"/>
<path d="M55.3483 18.432H64.5643V27.648H55.3483V18.432Z" fill="#16A6C5"/>
<path d="M36.9163 27.648H46.1323V36.864H36.9163V27.648Z" fill="#16A6C5"/>
<path d="M46.1323 27.648H55.3483V36.864H46.1323V27.648Z" fill="#16A6C5"/>
<path d="M18.4842 27.648H27.7003V36.864H18.4842V27.648Z" fill="#16A6C5"/>
<path d="M73.7803 27.648H82.9963V36.864H73.7803V27.648Z" fill="#16A6C5"/>
<path d="M55.3483 27.648H64.5643V36.864H55.3483V27.648Z" fill="#16A6C5"/>
<path d="M9.26825 36.864H18.4842V46.08H9.26825V36.864Z" fill="#16A6C5"/>
<path d="M0.0522461 36.864H9.26825V46.08H0.0522461V36.864Z" fill="#16A6C5"/>
<path d="M0.0522461 46.08H9.26825V55.296H0.0522461V46.08Z" fill="#16A6C5"/>
<path d="M0.0522461 55.296H9.26825V64.512H0.0522461V55.296Z" fill="#16A6C5"/>
<path d="M82.9963 36.864H92.2123V46.08H82.9963V36.864Z" fill="#16A6C5"/>
<path d="M36.9163 36.864H46.1323V46.08H36.9163V36.864Z" fill="#16A6C5"/>
<path d="M46.1323 36.864H55.3483V46.08H46.1323V36.864Z" fill="#16A6C5"/>
<path d="M18.4842 36.864H27.7003V46.08H18.4842V36.864Z" fill="#16A6C5"/>
<path d="M27.7003 36.864H36.9163V46.08H27.7003V36.864Z" fill="#16A6C5"/>
<path d="M64.5643 36.864H73.7803V46.08H64.5643V36.864Z" fill="#16A6C5"/>
<path d="M73.7803 36.864H82.9963V46.08H73.7803V36.864Z" fill="#16A6C5"/>
<path d="M55.3483 36.864H64.5643V46.08H55.3483V36.864Z" fill="#16A6C5"/>
<path d="M36.9163 46.08H46.1323V55.296H36.9163V46.08Z" fill="#16A6C5"/>
<path d="M46.1323 46.08H55.3483V55.296H46.1323V46.08Z" fill="#16A6C5"/>
<path d="M18.4842 46.08H27.7003V55.296H18.4842V46.08Z" fill="#16A6C5"/>
<path d="M18.4842 55.296H27.7003V64.512H18.4842V55.296Z" fill="#16A6C5"/>
<path d="M27.7003 64.512H36.9163V73.728H27.7003V64.512Z" fill="#16A6C5"/>
<path d="M36.9163 64.512H46.1323V73.728H36.9163V64.512Z" fill="#16A6C5"/>
<path d="M27.7003 46.08H36.9163V55.296H27.7003V46.08Z" fill="#16A6C5"/>
<path d="M64.5643 46.08H73.7803V55.296H64.5643V46.08Z" fill="#16A6C5"/>
<path d="M73.7803 46.08H82.9963V55.296H73.7803V46.08Z" fill="#16A6C5"/>
<path d="M73.7803 55.296H82.9963V64.512H73.7803V55.296Z" fill="#16A6C5"/>
<path d="M64.5643 64.512H73.7803V73.728H64.5643V64.512Z" fill="#16A6C5"/>
<path d="M55.3483 64.512H64.5643V73.728H55.3483V64.512Z" fill="#16A6C5"/>
<path d="M55.3483 46.08H64.5643V55.296H55.3483V46.08Z" fill="#16A6C5"/>
<path d="M64.5643 9.216H73.7803V18.432H64.5643V9.216Z" fill="#16A6C5"/>
<path d="M73.7803 0H82.9963V9.216H73.7803V0Z" fill="#16A6C5"/>
</svg>
