<svg width="480" height="872" viewBox="0 0 480 872" fill="none" xmlns="http://www.w3.org/2000/svg">
<path d="M130.909 435H174.545V478.636H130.909V435Z" fill="#8BEAFF"/>
<path d="M174.545 478.636H218.182V522.273H174.545V478.636Z" fill="#8BEAFF"/>
<path d="M218.182 478.636H261.818V522.273H218.182V478.636Z" fill="#8BEAFF"/>
<path d="M261.818 478.636H305.455V522.273H261.818V478.636Z" fill="#8BEAFF"/>
<path d="M174.545 522.273H218.182V565.909H174.545V522.273Z" fill="#8BEAFF"/>
<path d="M43.6364 522.273H87.2727V565.909H43.6364V522.273Z" fill="#8BEAFF"/>
<path d="M87.2727 565.909H130.909V609.545H87.2727V565.909Z" fill="#8BEAFF"/>
<path d="M87.2727 609.545H130.909V653.182H87.2727V609.545Z" fill="#8BEAFF"/>
<path d="M130.909 609.545H174.545V653.182H130.909V609.545Z" fill="#8BEAFF"/>
<path d="M87.2727 653.182H130.909V696.818H87.2727V653.182Z" fill="#8BEAFF"/>
<path d="M43.6364 609.545H87.2727V653.182H43.6364V609.545Z" fill="#8BEAFF"/>
<path d="M43.6364 653.182H87.2727V696.818H43.6364V653.182Z" fill="#8BEAFF"/>
<path d="M43.6364 696.818H87.2727V740.455H43.6364V696.818Z" fill="#8BEAFF"/>
<path d="M43.6364 565.909H87.2727V609.545H43.6364V565.909Z" fill="#8BEAFF"/>
<path d="M0 565.909H43.6364V609.545H0V565.909Z" fill="#8BEAFF"/>
<path d="M218.182 522.273H261.818V565.909H218.182V522.273Z" fill="#8BEAFF"/>
<path d="M261.818 522.273H305.455V565.909H261.818V522.273Z" fill="#8BEAFF"/>
<path d="M130.909 565.909H174.545V609.545H130.909V565.909Z" fill="#8BEAFF"/>
<path d="M218.182 565.909H261.818V609.545H218.182V565.909Z" fill="#8BEAFF"/>
<path d="M174.545 609.545H218.182V653.182H174.545V609.545Z" fill="#8BEAFF"/>
<path d="M174.545 653.182H218.182V696.818H174.545V653.182Z" fill="#8BEAFF"/>
<path d="M174.545 784.091H218.182V827.727H174.545V784.091Z" fill="#8BEAFF"/>
<path d="M174.545 827.727H218.182V871.364H174.545V827.727Z" fill="#8BEAFF"/>
<path d="M130.909 827.727H174.545V871.364H130.909V827.727Z" fill="#8BEAFF"/>
<path d="M87.2727 827.727H130.909V871.364H87.2727V827.727Z" fill="#8BEAFF"/>
<path d="M130.909 786.273H174.545V829.909H130.909V786.273Z" fill="#8BEAFF"/>
<path d="M305.455 784.091H261.818V827.727H305.455V784.091Z" fill="#8BEAFF"/>
<path d="M305.455 827.727H261.818V871.364H305.455V827.727Z" fill="#8BEAFF"/>
<path d="M349.091 827.727H305.455V871.364H349.091V827.727Z" fill="#8BEAFF"/>
<path d="M391.636 827.727H348V871.364H391.636V827.727Z" fill="#8BEAFF"/>
<path d="M349.091 784.091H305.455V827.727H349.091V784.091Z" fill="#8BEAFF"/>
<path d="M218.182 609.545H261.818V653.182H218.182V609.545Z" fill="#8BEAFF"/>
<path d="M261.818 609.545H305.455V653.182H261.818V609.545Z" fill="#8BEAFF"/>
<path d="M261.818 653.182H305.455V696.818H261.818V653.182Z" fill="#8BEAFF"/>
<path d="M174.545 696.818H218.182V740.455H174.545V696.818Z" fill="#8BEAFF"/>
<path d="M261.818 696.818H305.455V740.455H261.818V696.818Z" fill="#8BEAFF"/>
<path d="M174.545 740.455H218.182V784.091H174.545V740.455Z" fill="#8BEAFF"/>
<path d="M261.818 740.455H305.455V784.091H261.818V740.455Z" fill="#8BEAFF"/>
<path d="M218.182 653.182H261.818V696.818H218.182V653.182Z" fill="#8BEAFF"/>
<path d="M218.182 696.818H261.818V740.455H218.182V696.818Z" fill="#8BEAFF"/>
<path d="M305.455 565.909H349.091V609.545H305.455V565.909Z" fill="#8BEAFF"/>
<path d="M349.091 565.909H392.727V609.545H349.091V565.909Z" fill="#8BEAFF"/>
<path d="M349.091 609.545H392.727V653.182H349.091V609.545Z" fill="#8BEAFF"/>
<path d="M305.455 609.545H349.091V653.182H305.455V609.545Z" fill="#8BEAFF"/>
<path d="M349.091 653.182H392.727V696.818H349.091V653.182Z" fill="#8BEAFF"/>
<path d="M392.727 609.545H436.364V653.182H392.727V609.545Z" fill="#8BEAFF"/>
<path d="M392.727 653.182H436.364V696.818H392.727V653.182Z" fill="#8BEAFF"/>
<path d="M392.727 696.818H436.364V740.455H392.727V696.818Z" fill="#8BEAFF"/>
<path d="M392.727 565.909H436.364V609.545H392.727V565.909Z" fill="#8BEAFF"/>
<path d="M436.364 565.909H480V609.545H436.364V565.909Z" fill="#8BEAFF"/>
<path d="M392.727 522.273H436.364V565.909H392.727V522.273Z" fill="#8BEAFF"/>
<path d="M305.455 435H349.091V478.636H305.455V435Z" fill="#8BEAFF"/>
<rect x="407" width="20" height="20" transform="rotate(90 407 0)" fill="#8BEAFF"/>
<rect x="327" width="20" height="20" transform="rotate(90 327 0)" fill="#8BEAFF"/>
<rect x="247" width="20" height="20" transform="rotate(90 247 0)" fill="#8BEAFF"/>
<rect x="167" width="20" height="20" transform="rotate(90 167 0)" fill="#8BEAFF"/>
<rect x="407" y="80" width="20" height="20" transform="rotate(90 407 80)" fill="#8BEAFF"/>
<rect x="407" y="160" width="20" height="20" transform="rotate(90 407 160)" fill="#8BEAFF"/>
<rect x="407" y="240" width="20" height="20" transform="rotate(90 407 240)" fill="#8BEAFF"/>
</svg>
