<svg width="85" height="62" viewBox="0 0 85 62" fill="none" xmlns="http://www.w3.org/2000/svg">
<path d="M30.72 15.36H38.4V23.04H30.72V15.36Z" fill="#41DDFF"/>
<path d="M23.04 7.68H30.72V15.36H23.04V7.68Z" fill="#41DDFF"/>
<path d="M15.36 0H23.04V7.68H15.36V0Z" fill="#41DDFF"/>
<path d="M38.4 15.36H46.08V23.04H38.4V15.36Z" fill="#41DDFF"/>
<path d="M15.36 15.36H23.04V23.04H15.36V15.36Z" fill="#41DDFF"/>
<path d="M7.68 23.04H15.36V30.72H7.68V23.04Z" fill="#41DDFF"/>
<path d="M23.04 15.36H30.72V23.04H23.04V15.36Z" fill="#41DDFF"/>
<path d="M53.76 15.36H61.44V23.04H53.76V15.36Z" fill="#41DDFF"/>
<path d="M61.44 15.36H69.12V23.04H61.44V15.36Z" fill="#41DDFF"/>
<path d="M69.12 23.04H76.8V30.72H69.12V23.04Z" fill="#41DDFF"/>
<path d="M76.8 30.72H84.48V38.4H76.8V30.72Z" fill="#41DDFF"/>
<path d="M76.8 38.4H84.48V46.08H76.8V38.4Z" fill="#41DDFF"/>
<path d="M76.8 46.08H84.48V53.76H76.8V46.08Z" fill="#41DDFF"/>
<path d="M46.08 15.36H53.76V23.04H46.08V15.36Z" fill="#41DDFF"/>
<path d="M30.72 23.04H38.4V30.72H30.72V23.04Z" fill="#41DDFF"/>
<path d="M38.4 23.04H46.08V30.72H38.4V23.04Z" fill="#41DDFF"/>
<path d="M15.36 23.04H23.04V30.72H15.36V23.04Z" fill="#41DDFF"/>
<path d="M61.44 23.04H69.12V30.72H61.44V23.04Z" fill="#41DDFF"/>
<path d="M46.08 23.04H53.76V30.72H46.08V23.04Z" fill="#41DDFF"/>
<path d="M7.68 30.72H15.36V38.4H7.68V30.72Z" fill="#41DDFF"/>
<path d="M0 30.72H7.68V38.4H0V30.72Z" fill="#41DDFF"/>
<path d="M0 38.4H7.68V46.08H0V38.4Z" fill="#41DDFF"/>
<path d="M0 46.08H7.68V53.76H0V46.08Z" fill="#41DDFF"/>
<path d="M69.12 30.72H76.8V38.4H69.12V30.72Z" fill="#41DDFF"/>
<path d="M30.72 30.72H38.4V38.4H30.72V30.72Z" fill="#41DDFF"/>
<path d="M38.4 30.72H46.08V38.4H38.4V30.72Z" fill="#41DDFF"/>
<path d="M15.36 30.72H23.04V38.4H15.36V30.72Z" fill="#41DDFF"/>
<path d="M23.04 30.72H30.72V38.4H23.04V30.72Z" fill="#41DDFF"/>
<path d="M53.76 30.72H61.44V38.4H53.76V30.72Z" fill="#41DDFF"/>
<path d="M61.44 30.72H69.12V38.4H61.44V30.72Z" fill="#41DDFF"/>
<path d="M46.08 30.72H53.76V38.4H46.08V30.72Z" fill="#41DDFF"/>
<path d="M30.72 38.4H38.4V46.08H30.72V38.4Z" fill="#41DDFF"/>
<path d="M38.4 38.4H46.08V46.08H38.4V38.4Z" fill="#41DDFF"/>
<path d="M15.36 38.4H23.04V46.08H15.36V38.4Z" fill="#41DDFF"/>
<path d="M15.36 46.08H23.04V53.76H15.36V46.08Z" fill="#41DDFF"/>
<path d="M23.04 53.76H30.72V61.44H23.04V53.76Z" fill="#41DDFF"/>
<path d="M30.72 53.76H38.4V61.44H30.72V53.76Z" fill="#41DDFF"/>
<path d="M23.04 38.4H30.72V46.08H23.04V38.4Z" fill="#41DDFF"/>
<path d="M53.76 38.4H61.44V46.08H53.76V38.4Z" fill="#41DDFF"/>
<path d="M61.44 38.4H69.12V46.08H61.44V38.4Z" fill="#41DDFF"/>
<path d="M61.44 46.08H69.12V53.76H61.44V46.08Z" fill="#41DDFF"/>
<path d="M53.76 53.76H61.44V61.44H53.76V53.76Z" fill="#41DDFF"/>
<path d="M46.08 53.76H53.76V61.44H46.08V53.76Z" fill="#41DDFF"/>
<path d="M46.08 38.4H53.76V46.08H46.08V38.4Z" fill="#41DDFF"/>
<path d="M53.76 7.68H61.44V15.36H53.76V7.68Z" fill="#41DDFF"/>
<path d="M61.44 0H69.12V7.68H61.44V0Z" fill="#41DDFF"/>
</svg>
