<svg width="102" height="74" viewBox="0 0 102 74" fill="none" xmlns="http://www.w3.org/2000/svg">
<path d="M36.9163 0.200195H46.1323V9.4162H36.9163V0.200195Z" fill="#C51656"/>
<path d="M46.1323 0.200195H55.3483V9.4162H46.1323V0.200195Z" fill="#C51656"/>
<path d="M55.3483 0.200195H64.5643V9.4162H55.3483V0.200195Z" fill="#C51656"/>
<path d="M36.9163 9.4162H46.1323V18.6322H36.9163V9.4162Z" fill="#C51656"/>
<path d="M46.1323 9.4162H55.3483V18.6322H46.1323V9.4162Z" fill="#C51656"/>
<path d="M18.4842 9.4162H27.7003V18.6322H18.4842V9.4162Z" fill="#C51656"/>
<path d="M27.7003 9.4162H36.9163V18.6322H27.7003V9.4162Z" fill="#C51656"/>
<path d="M55.3483 9.4162H64.5643V18.6322H55.3483V9.4162Z" fill="#C51656"/>
<path d="M64.5643 9.4162H73.7803V18.6322H64.5643V9.4162Z" fill="#C51656"/>
<path d="M73.7803 9.4162H82.9963V18.6322H73.7803V9.4162Z" fill="#C51656"/>
<path d="M46.1323 18.6322H55.3483V27.8482H46.1323V18.6322Z" fill="#C51656"/>
<path d="M18.4842 18.6322H27.7003V27.8482H18.4842V18.6322Z" fill="#C51656"/>
<path d="M9.26825 18.6322H18.4842V27.8482H9.26825V18.6322Z" fill="#C51656"/>
<path d="M27.7003 18.6322H36.9163V27.8482H27.7003V18.6322Z" fill="#C51656"/>
<path d="M64.5643 18.6322H73.7803V27.8482H64.5643V18.6322Z" fill="#C51656"/>
<path d="M73.7803 18.6322H82.9963V27.8482H73.7803V18.6322Z" fill="#C51656"/>
<path d="M82.9963 18.6322H92.2123V27.8482H82.9963V18.6322Z" fill="#C51656"/>
<path d="M46.1323 27.8482H55.3483V37.0642H46.1323V27.8482Z" fill="#C51656"/>
<path d="M36.9163 27.8482H46.1323V37.0642H36.9163V27.8482Z" fill="#C51656"/>
<path d="M55.3483 27.8482H64.5643V37.0642H55.3483V27.8482Z" fill="#C51656"/>
<path d="M18.4842 27.8482H27.7003V37.0642H18.4842V27.8482Z" fill="#C51656"/>
<path d="M9.26825 27.8482H18.4842V37.0642H9.26825V27.8482Z" fill="#C51656"/>
<path d="M27.7003 27.8482H36.9163V37.0642H27.7003V27.8482Z" fill="#C51656"/>
<path d="M64.5643 27.8482H73.7803V37.0642H64.5643V27.8482Z" fill="#C51656"/>
<path d="M73.7803 27.8482H82.9963V37.0642H73.7803V27.8482Z" fill="#C51656"/>
<path d="M82.9963 27.8482H92.2123V37.0642H82.9963V27.8482Z" fill="#C51656"/>
<path d="M46.1323 37.0642H55.3483V46.2802H46.1323V37.0642Z" fill="#C51656"/>
<path d="M36.9163 37.0642H46.1323V46.2802H36.9163V37.0642Z" fill="#C51656"/>
<path d="M55.3483 37.0642H64.5643V46.2802H55.3483V37.0642Z" fill="#C51656"/>
<path d="M18.4842 37.0642H27.7003V46.2802H18.4842V37.0642Z" fill="#C51656"/>
<path d="M9.26825 37.0642H18.4842V46.2802H9.26825V37.0642Z" fill="#C51656"/>
<path d="M27.7003 37.0642H36.9163V46.2802H27.7003V37.0642Z" fill="#C51656"/>
<path d="M64.5643 37.0642H73.7803V46.2802H64.5643V37.0642Z" fill="#C51656"/>
<path d="M46.1323 46.2802H55.3483V55.4962H46.1323V46.2802Z" fill="#C51656"/>
<path d="M36.9163 46.2802H46.1323V55.4962H36.9163V46.2802Z" fill="#C51656"/>
<path d="M55.3483 46.2802H64.5643V55.4962H55.3483V46.2802Z" fill="#C51656"/>
<path d="M27.7003 46.2802H36.9163V55.4962H27.7003V46.2802Z" fill="#C51656"/>
<path d="M18.4842 55.4962H27.7003V64.7122H18.4842V55.4962Z" fill="#C51656"/>
<path d="M27.7003 55.4962H36.9163V64.7122H27.7003V55.4962Z" fill="#C51656"/>
<path d="M64.5643 55.4962H73.7803V64.7122H64.5643V55.4962Z" fill="#C51656"/>
<path d="M9.26825 55.4962H18.4842V64.7122H9.26825V55.4962Z" fill="#C51656"/>
<path d="M9.26825 64.7122H18.4842V73.9282H9.26825V64.7122Z" fill="#C51656"/>
<path d="M0.0522461 55.4962H9.26825V64.7122H0.0522461V55.4962Z" fill="#C51656"/>
<path d="M92.2123 55.4962H101.428V64.7122H92.2123V55.4962Z" fill="#C51656"/>
<path d="M82.9963 55.4962H92.2123V64.7122H82.9963V55.4962Z" fill="#C51656"/>
<path d="M82.9963 64.7122H92.2123V73.9282H82.9963V64.7122Z" fill="#C51656"/>
<path d="M73.7803 55.4962H82.9963V64.7122H73.7803V55.4962Z" fill="#C51656"/>
<path d="M64.5643 46.2802H73.7803V55.4962H64.5643V46.2802Z" fill="#C51656"/>
<path d="M73.7803 37.0642H82.9963V46.2802H73.7803V37.0642Z" fill="#C51656"/>
<path d="M82.9963 37.0642H92.2123V46.2802H82.9963V37.0642Z" fill="#C51656"/>
</svg>
