<svg width="401" height="321" viewBox="0 0 401 321" fill="none" xmlns="http://www.w3.org/2000/svg">
<g clip-path="url(#clip0_290_1235)">
<path d="M84.5933 80.0527H151.468V96.7714H184.905V113.49H201.624V130.209H218.342V180.365H235.061V314.114H218.342V297.395H201.624V280.677H184.905V297.395H168.187V314.114H134.749V280.677H101.312V314.114H67.8746V297.395H51.156V280.677H34.4373V297.395H17.7187V314.114H1V180.365H17.7187V130.209H34.4373V113.49H51.156V96.7714H84.5933V80.0527Z" fill="#41DDFF"/>
<path d="M67.8746 130.209H34.4373V146.928H17.7187V197.084H34.4373V213.802H67.8746V197.084H84.5933V146.928H67.8746V130.209Z" fill="#F2FFFF"/>
<path d="M51.156 197.084H17.7187V163.646H51.156V197.084Z" fill="#2D31FF"/>
<path d="M168.187 130.209H134.749V146.928H118.031V197.084H134.749V213.802H168.187V197.084H184.905V146.928H168.187V130.209Z" fill="#F2FFFF"/>
<path d="M151.468 197.084H118.031V163.646H151.468V197.084Z" fill="#2D31FF"/>
<rect x="226.328" y="8" width="174.672" height="104.803" rx="52.4017" fill="white"/>
<path d="M278.961 78.7324V73.656H273.885V68.5796H268.795V63.4895H263.718V58.4131H268.795V53.3367H273.885V48.2466H278.961V43.1702H289.128V48.2466H284.038V53.3367H278.961V58.4131H273.885V63.4895H278.961V68.5796H284.038V73.656H289.128V78.7324H278.961ZM296.742 78.7324V68.5796H301.819V63.4895H306.909V58.4131H311.985V53.3367H317.062V48.2466H322.152V38.0938H332.305V48.2466H327.228V53.3367H322.152V58.4131H317.062V63.4895H311.985V68.5796H306.909V78.7324H296.742ZM339.919 78.7324V73.656H344.996V68.5796H350.086V63.4895H355.162V58.4131H350.086V53.3367H344.996V48.2466H339.919V43.1702H350.086V48.2466H355.162V53.3367H360.239V58.4131H365.329V63.4895H360.239V68.5796H355.162V73.656H350.086V78.7324H339.919Z" fill="#14AD59"/>
<path d="M238.555 125.031L256.022 102.323L284.406 104.943L238.555 125.031Z" fill="white"/>
</g>
<defs>
<clipPath id="clip0_290_1235">
<rect width="400" height="320" fill="white" transform="translate(0.839966 0.574219)"/>
</clipPath>
</defs>
</svg>
