<svg width="80" height="78" viewBox="0 0 80 78" fill="none" xmlns="http://www.w3.org/2000/svg">
<rect y="0.277832" width="8.88889" height="8.88889" fill="#C3CBDE"/>
<rect x="8.88892" y="9.1665" width="8.88889" height="8.88889" fill="#C3CBDE"/>
<rect x="17.7778" y="18.0557" width="8.88889" height="8.88889" fill="#C3CBDE"/>
<rect x="26.6667" y="26.9443" width="8.88889" height="8.88889" fill="#C3CBDE"/>
<rect width="8.88889" height="8.88889" transform="matrix(-1 0 0 1 80 0.277832)" fill="#C3CBDE"/>
<rect width="8.88889" height="8.88889" transform="matrix(-1 0 0 1 71.1111 9.1665)" fill="#C3CBDE"/>
<rect width="8.88889" height="8.88889" transform="matrix(-1 0 0 1 62.2222 18.0557)" fill="#C3CBDE"/>
<rect width="8.88889" height="8.88889" transform="matrix(-1 0 0 1 53.3333 26.9443)" fill="#C3CBDE"/>
<rect x="35.5557" y="35.8335" width="8.88889" height="8.88889" fill="#C3CBDE"/>
<rect y="32.7222" width="8.88889" height="8.88889" fill="#C3CBDE"/>
<rect x="8.88892" y="41.6108" width="8.88889" height="8.88889" fill="#C3CBDE"/>
<rect x="17.7778" y="50.5" width="8.88889" height="8.88889" fill="#C3CBDE"/>
<rect x="26.6667" y="59.3887" width="8.88889" height="8.88889" fill="#C3CBDE"/>
<rect width="8.88889" height="8.88889" transform="matrix(-1 0 0 1 80 32.7222)" fill="#C3CBDE"/>
<rect width="8.88889" height="8.88889" transform="matrix(-1 0 0 1 71.1111 41.6108)" fill="#C3CBDE"/>
<rect width="8.88889" height="8.88889" transform="matrix(-1 0 0 1 62.2222 50.5)" fill="#C3CBDE"/>
<rect width="8.88889" height="8.88889" transform="matrix(-1 0 0 1 53.3333 59.3887)" fill="#C3CBDE"/>
<rect x="35.5557" y="68.2778" width="8.88889" height="8.88889" fill="#C3CBDE"/>
</svg>
