<svg width="192" height="129" viewBox="0 0 192 129" fill="none" xmlns="http://www.w3.org/2000/svg">
<rect x="0.320038" width="192" height="115.2" rx="57.6" fill="white"/>
<path d="M58.175 77.6001V72.0201H52.595V66.4401H47V60.8451H41.42V55.2651H47V49.6851H52.595V44.0901H58.175V38.5101H69.35V44.0901H63.755V49.6851H58.175V55.2651H52.595V60.8451H58.175V66.4401H63.755V72.0201H69.35V77.6001H58.175ZM77.72 77.6001V66.4401H83.3V60.8451H88.895V55.2651H94.475V49.6851H100.055V44.0901H105.65V32.9301H116.81V44.0901H111.23V49.6851H105.65V55.2651H100.055V60.8451H94.475V66.4401H88.895V77.6001H77.72ZM125.18 77.6001V72.0201H130.76V66.4401H136.355V60.8451H141.935V55.2651H136.355V49.6851H130.76V44.0901H125.18V38.5101H136.355V44.0901H141.935V49.6851H147.515V55.2651H153.11V60.8451H147.515V66.4401H141.935V72.0201H136.355V77.6001H125.18Z" fill="#14AD59"/>
<path d="M13.76 128.64L32.96 103.68L64.16 106.56L13.76 128.64Z" fill="white"/>
</svg>
