<svg width="360" height="360" viewBox="0 0 360 360" fill="none" xmlns="http://www.w3.org/2000/svg">
<rect width="360" height="360" fill="white"/>
<rect width="32" height="96" fill="#FF97BD"/>
<rect width="32" height="64" transform="translate(32)" fill="#FF97BD"/>
<rect width="32" height="32" transform="translate(64)" fill="#FF97BD"/>
<path d="M224 136H224.08M140 100H220C242.091 100 260 117.909 260 140V220C260 242.091 242.091 260 220 260H140C117.909 260 100 242.091 100 220V140C100 117.909 117.909 100 140 100ZM212 174.96C212.987 181.618 211.85 188.418 208.75 194.392C205.65 200.367 200.745 205.211 194.733 208.237C188.721 211.263 181.908 212.317 175.262 211.247C168.617 210.178 162.478 207.041 157.719 202.281C152.959 197.522 149.822 191.383 148.753 184.738C147.683 178.092 148.737 171.279 151.763 165.267C154.789 159.255 159.633 154.35 165.608 151.25C171.582 148.15 178.382 147.013 185.04 148C191.831 149.007 198.119 152.172 202.974 157.026C207.828 161.881 210.993 168.169 212 174.96Z" stroke="#FF97BD" stroke-width="16" stroke-linecap="round" stroke-linejoin="round"/>
</svg>
