<svg width="1920" height="924" viewBox="0 0 1920 924" fill="none" xmlns="http://www.w3.org/2000/svg">
<g clip-path="url(#clip0_317_2364)">
<g opacity="0.4">
<rect width="8" height="8" transform="matrix(-1 0 0 1 160 440)" fill="#FF4186"/>
<rect width="8" height="8" transform="matrix(-1 0 0 1 160 448)" fill="#FF4186"/>
<rect width="8" height="8" transform="matrix(-1 0 0 1 160 456)" fill="#FF4186"/>
<rect width="8" height="8" transform="matrix(-1 0 0 1 160 464)" fill="#FF4186"/>
<rect width="8" height="8" transform="matrix(-1 0 0 1 160 472)" fill="#FF4186"/>
<rect width="8" height="8" transform="matrix(-1 0 0 1 160 480)" fill="#FF4186"/>
<rect width="8" height="8" transform="matrix(-1 0 0 1 160 488)" fill="#FF4186"/>
<rect width="8" height="8" transform="matrix(-1 0 0 1 160 496)" fill="#FF4186"/>
<rect width="8" height="8" transform="matrix(-1 0 0 1 160 504)" fill="#FF4186"/>
<rect x="160" y="759" width="8" height="8" transform="rotate(180 160 759)" fill="#FF4186"/>
<rect x="160" y="751" width="8" height="8" transform="rotate(180 160 751)" fill="#FF4186"/>
<rect x="160" y="743" width="8" height="8" transform="rotate(180 160 743)" fill="#FF4186"/>
<rect x="160" y="735" width="8" height="8" transform="rotate(180 160 735)" fill="#FF4186"/>
<rect x="160" y="727" width="8" height="8" transform="rotate(180 160 727)" fill="#FF4186"/>
<rect x="160" y="719" width="8" height="8" transform="rotate(180 160 719)" fill="#FF4186"/>
<rect x="208" y="584" width="8" height="8" transform="rotate(180 208 584)" fill="#FF4186"/>
<rect x="208" y="576" width="8" height="8" transform="rotate(180 208 576)" fill="#FF4186"/>
<rect x="208" y="568" width="8" height="8" transform="rotate(180 208 568)" fill="#FF4186"/>
<rect x="160" y="711" width="8" height="8" transform="rotate(180 160 711)" fill="#FF4186"/>
<rect x="160" y="703" width="8" height="8" transform="rotate(180 160 703)" fill="#FF4186"/>
<rect x="160" y="695" width="8" height="8" transform="rotate(180 160 695)" fill="#FF4186"/>
<rect x="160" y="584" width="8" height="8" transform="rotate(180 160 584)" fill="#FF4186"/>
<rect x="160" y="576" width="8" height="8" transform="rotate(180 160 576)" fill="#FF4186"/>
<rect x="160" y="568" width="8" height="8" transform="rotate(180 160 568)" fill="#FF4186"/>
<rect x="208" y="560" width="8" height="8" transform="rotate(180 208 560)" fill="#FF4186"/>
<rect x="208" y="552" width="8" height="8" transform="rotate(180 208 552)" fill="#FF4186"/>
<rect x="208" y="544" width="8" height="8" transform="rotate(180 208 544)" fill="#FF4186"/>
<rect x="208" y="536" width="8" height="8" transform="rotate(180 208 536)" fill="#FF4186"/>
<rect x="208" y="504" width="8" height="8" transform="rotate(180 208 504)" fill="#FF4186"/>
<rect x="208" y="496" width="8" height="8" transform="rotate(180 208 496)" fill="#FF4186"/>
<rect x="208" y="488" width="8" height="8" transform="rotate(180 208 488)" fill="#FF4186"/>
<rect x="208" y="528" width="8" height="8" transform="rotate(180 208 528)" fill="#FF4186"/>
<rect x="208" y="520" width="8" height="8" transform="rotate(180 208 520)" fill="#FF4186"/>
<rect x="208" y="512" width="8" height="8" transform="rotate(180 208 512)" fill="#FF4186"/>
<rect x="208" y="480" width="8" height="8" transform="rotate(180 208 480)" fill="#FF4186"/>
<rect x="208" y="472" width="8" height="8" transform="rotate(180 208 472)" fill="#FF4186"/>
<rect x="208" y="464" width="8" height="8" transform="rotate(180 208 464)" fill="#FF4186"/>
<rect x="208" y="456" width="8" height="8" transform="rotate(180 208 456)" fill="#FF4186"/>
<rect x="208" y="448" width="8" height="8" transform="rotate(180 208 448)" fill="#FF4186"/>
<rect x="160" y="560" width="8" height="8" transform="rotate(180 160 560)" fill="#FF4186"/>
<rect x="160" y="552" width="8" height="8" transform="rotate(180 160 552)" fill="#FF4186"/>
<rect width="8" height="8" transform="matrix(-1 0 0 1 200 392)" fill="#FF4186"/>
<rect width="8" height="8" transform="matrix(-1 0 0 1 192 384)" fill="#FF4186"/>
<rect width="8" height="8" transform="matrix(-1 0 0 1 184 384)" fill="#FF4186"/>
<rect width="8" height="8" transform="matrix(-1 0 0 1 176 384)" fill="#FF4186"/>
<rect width="8" height="8" transform="matrix(-1 0 0 1 168 392)" fill="#FF4186"/>
<rect width="8" height="8" transform="matrix(-1 0 0 1 208 400)" fill="#FF4186"/>
<rect width="8" height="8" transform="matrix(-1 0 0 1 208 408)" fill="#FF4186"/>
<rect width="8" height="8" transform="matrix(-1 0 0 1 208 416)" fill="#FF4186"/>
<rect width="8" height="8" transform="matrix(-1 0 0 1 208 424)" fill="#FF4186"/>
<rect width="8" height="8" transform="matrix(-1 0 0 1 208 432)" fill="#FF4186"/>
<rect width="8" height="8" transform="matrix(-1 0 0 1 160 400)" fill="#FF4186"/>
<rect width="8" height="8" transform="matrix(-1 0 0 1 160 408)" fill="#FF4186"/>
<rect width="8" height="8" transform="matrix(-1 0 0 1 160 416)" fill="#FF4186"/>
<rect width="8" height="8" transform="matrix(-1 0 0 1 160 424)" fill="#FF4186"/>
<rect width="8" height="8" transform="matrix(-1 0 0 1 160 432)" fill="#FF4186"/>
<rect x="160" y="544" width="8" height="8" transform="rotate(180 160 544)" fill="#FF4186"/>
<rect x="160" y="536" width="8" height="8" transform="rotate(180 160 536)" fill="#FF4186"/>
<rect x="160" y="528" width="8" height="8" transform="rotate(180 160 528)" fill="#FF4186"/>
<rect x="160" y="687" width="8" height="8" transform="rotate(180 160 687)" fill="#FF4186"/>
<rect x="160" y="679" width="8" height="8" transform="rotate(180 160 679)" fill="#FF4186"/>
<rect x="160" y="671" width="8" height="8" transform="rotate(180 160 671)" fill="#FF4186"/>
<rect x="208" y="655" width="8" height="8" transform="rotate(180 208 655)" fill="#FF4186"/>
<rect x="208" y="647" width="8" height="8" transform="rotate(180 208 647)" fill="#FF4186"/>
<rect x="208" y="639" width="8" height="8" transform="rotate(180 208 639)" fill="#FF4186"/>
<rect x="208" y="631" width="8" height="8" transform="rotate(180 208 631)" fill="#FF4186"/>
<rect x="160" y="663" width="8" height="8" transform="rotate(180 160 663)" fill="#FF4186"/>
<rect x="160" y="655" width="8" height="8" transform="rotate(180 160 655)" fill="#FF4186"/>
<rect x="160" y="647" width="8" height="8" transform="rotate(180 160 647)" fill="#FF4186"/>
<rect x="160" y="639" width="8" height="8" transform="rotate(180 160 639)" fill="#FF4186"/>
<rect x="160" y="631" width="8" height="8" transform="rotate(180 160 631)" fill="#FF4186"/>
<rect x="208" y="623" width="8" height="8" transform="rotate(180 208 623)" fill="#FF4186"/>
<rect x="208" y="615" width="8" height="8" transform="rotate(180 208 615)" fill="#FF4186"/>
<rect x="208" y="703" width="8" height="8" transform="rotate(180 208 703)" fill="#FF4186"/>
<rect x="208" y="711" width="8" height="8" transform="rotate(180 208 711)" fill="#FF4186"/>
<rect x="216" y="719" width="8" height="8" transform="rotate(180 216 719)" fill="#FF4186"/>
<rect x="208" y="695" width="8" height="8" transform="rotate(180 208 695)" fill="#FF4186"/>
<rect x="208" y="687" width="8" height="8" transform="rotate(180 208 687)" fill="#FF4186"/>
<rect x="208" y="679" width="8" height="8" transform="rotate(180 208 679)" fill="#FF4186"/>
<rect x="208" y="671" width="8" height="8" transform="rotate(180 208 671)" fill="#FF4186"/>
<rect x="208" y="663" width="8" height="8" transform="rotate(180 208 663)" fill="#FF4186"/>
<rect x="208" y="607" width="8" height="8" transform="rotate(180 208 607)" fill="#FF4186"/>
<rect x="160" y="623" width="8" height="8" transform="rotate(180 160 623)" fill="#FF4186"/>
<rect x="160" y="615" width="8" height="8" transform="rotate(180 160 615)" fill="#FF4186"/>
<rect x="160" y="607" width="8" height="8" transform="rotate(180 160 607)" fill="#FF4186"/>
<rect x="208" y="600" width="8" height="8" transform="rotate(180 208 600)" fill="#FF4186"/>
<rect x="208" y="592" width="8" height="8" transform="rotate(180 208 592)" fill="#FF4186"/>
<rect x="160" y="600" width="8" height="8" transform="rotate(180 160 600)" fill="#FF4186"/>
<rect x="160" y="592" width="8" height="8" transform="rotate(180 160 592)" fill="#FF4186"/>
<rect x="160" y="520" width="8" height="8" transform="rotate(180 160 520)" fill="#FF4186"/>
<rect x="487" y="767" width="8" height="8" transform="rotate(90 487 767)" fill="#FF4186"/>
<rect x="479" y="767" width="8" height="8" transform="rotate(90 479 767)" fill="#FF4186"/>
<rect x="471" y="767" width="8" height="8" transform="rotate(90 471 767)" fill="#FF4186"/>
<rect x="463" y="767" width="8" height="8" transform="rotate(90 463 767)" fill="#FF4186"/>
<rect x="455" y="767" width="8" height="8" transform="rotate(90 455 767)" fill="#FF4186"/>
<rect x="447" y="767" width="8" height="8" transform="rotate(90 447 767)" fill="#FF4186"/>
<rect x="439" y="767" width="8" height="8" transform="rotate(90 439 767)" fill="#FF4186"/>
<rect x="431" y="767" width="8" height="8" transform="rotate(90 431 767)" fill="#FF4186"/>
<rect x="423" y="767" width="8" height="8" transform="rotate(90 423 767)" fill="#FF4186"/>
<rect width="8" height="8" transform="matrix(-4.37114e-08 1 1 4.37114e-08 168 767)" fill="#FF4186"/>
<rect width="8" height="8" transform="matrix(-4.37114e-08 1 1 4.37114e-08 160 759)" fill="#FF4186"/>
<rect width="8" height="8" transform="matrix(-4.37114e-08 1 1 4.37114e-08 176 767)" fill="#FF4186"/>
<rect width="8" height="8" transform="matrix(-4.37114e-08 1 1 4.37114e-08 184 767)" fill="#FF4186"/>
<rect width="8" height="8" transform="matrix(-4.37114e-08 1 1 4.37114e-08 192 767)" fill="#FF4186"/>
<rect width="8" height="8" transform="matrix(-4.37114e-08 1 1 4.37114e-08 200 767)" fill="#FF4186"/>
<rect width="8" height="8" transform="matrix(-4.37114e-08 1 1 4.37114e-08 208 767)" fill="#FF4186"/>
<rect width="8" height="8" transform="matrix(-4.37114e-08 1 1 4.37114e-08 343 719)" fill="#FF4186"/>
<rect width="8" height="8" transform="matrix(-4.37114e-08 1 1 4.37114e-08 351 719)" fill="#FF4186"/>
<rect width="8" height="8" transform="matrix(-4.37114e-08 1 1 4.37114e-08 359 719)" fill="#FF4186"/>
<rect width="8" height="8" transform="matrix(-4.37114e-08 1 1 4.37114e-08 216 767)" fill="#FF4186"/>
<rect width="8" height="8" transform="matrix(-4.37114e-08 1 1 4.37114e-08 224 767)" fill="#FF4186"/>
<rect width="8" height="8" transform="matrix(-4.37114e-08 1 1 4.37114e-08 232 767)" fill="#FF4186"/>
<rect width="8" height="8" transform="matrix(-4.37114e-08 1 1 4.37114e-08 343 767)" fill="#FF4186"/>
<rect width="8" height="8" transform="matrix(-4.37114e-08 1 1 4.37114e-08 351 767)" fill="#FF4186"/>
<rect width="8" height="8" transform="matrix(-4.37114e-08 1 1 4.37114e-08 359 767)" fill="#FF4186"/>
<rect width="8" height="8" transform="matrix(-4.37114e-08 1 1 4.37114e-08 367 719)" fill="#FF4186"/>
<rect width="8" height="8" transform="matrix(-4.37114e-08 1 1 4.37114e-08 375 719)" fill="#FF4186"/>
<rect width="8" height="8" transform="matrix(-4.37114e-08 1 1 4.37114e-08 383 719)" fill="#FF4186"/>
<rect width="8" height="8" transform="matrix(-4.37114e-08 1 1 4.37114e-08 391 719)" fill="#FF4186"/>
<rect width="8" height="8" transform="matrix(-4.37114e-08 1 1 4.37114e-08 423 719)" fill="#FF4186"/>
<rect width="8" height="8" transform="matrix(-4.37114e-08 1 1 4.37114e-08 431 719)" fill="#FF4186"/>
<rect width="8" height="8" transform="matrix(-4.37114e-08 1 1 4.37114e-08 439 719)" fill="#FF4186"/>
<rect width="8" height="8" transform="matrix(-4.37114e-08 1 1 4.37114e-08 399 719)" fill="#FF4186"/>
<rect width="8" height="8" transform="matrix(-4.37114e-08 1 1 4.37114e-08 407 719)" fill="#FF4186"/>
<rect width="8" height="8" transform="matrix(-4.37114e-08 1 1 4.37114e-08 415 719)" fill="#FF4186"/>
<rect width="8" height="8" transform="matrix(-4.37114e-08 1 1 4.37114e-08 447 719)" fill="#FF4186"/>
<rect width="8" height="8" transform="matrix(-4.37114e-08 1 1 4.37114e-08 455 719)" fill="#FF4186"/>
<rect width="8" height="8" transform="matrix(-4.37114e-08 1 1 4.37114e-08 463 719)" fill="#FF4186"/>
<rect width="8" height="8" transform="matrix(-4.37114e-08 1 1 4.37114e-08 471 719)" fill="#FF4186"/>
<rect width="8" height="8" transform="matrix(-4.37114e-08 1 1 4.37114e-08 479 719)" fill="#FF4186"/>
<rect width="8" height="8" transform="matrix(-4.37114e-08 1 1 4.37114e-08 367 767)" fill="#FF4186"/>
<rect width="8" height="8" transform="matrix(-4.37114e-08 1 1 4.37114e-08 375 767)" fill="#FF4186"/>
<rect x="535" y="727" width="8" height="8" transform="rotate(90 535 727)" fill="#FF4186"/>
<rect x="543" y="735" width="8" height="8" transform="rotate(90 543 735)" fill="#FF4186"/>
<rect x="543" y="743" width="8" height="8" transform="rotate(90 543 743)" fill="#FF4186"/>
<rect x="543" y="751" width="8" height="8" transform="rotate(90 543 751)" fill="#FF4186"/>
<rect x="535" y="759" width="8" height="8" transform="rotate(90 535 759)" fill="#FF4186"/>
<rect x="527" y="719" width="8" height="8" transform="rotate(90 527 719)" fill="#FF4186"/>
<rect x="519" y="719" width="8" height="8" transform="rotate(90 519 719)" fill="#FF4186"/>
<rect x="511" y="719" width="8" height="8" transform="rotate(90 511 719)" fill="#FF4186"/>
<rect x="503" y="719" width="8" height="8" transform="rotate(90 503 719)" fill="#FF4186"/>
<rect x="495" y="719" width="8" height="8" transform="rotate(90 495 719)" fill="#FF4186"/>
<rect x="527" y="767" width="8" height="8" transform="rotate(90 527 767)" fill="#FF4186"/>
<rect x="519" y="767" width="8" height="8" transform="rotate(90 519 767)" fill="#FF4186"/>
<rect x="511" y="767" width="8" height="8" transform="rotate(90 511 767)" fill="#FF4186"/>
<rect x="503" y="767" width="8" height="8" transform="rotate(90 503 767)" fill="#FF4186"/>
<rect x="495" y="767" width="8" height="8" transform="rotate(90 495 767)" fill="#FF4186"/>
<rect width="8" height="8" transform="matrix(-4.37114e-08 1 1 4.37114e-08 383 767)" fill="#FF4186"/>
<rect width="8" height="8" transform="matrix(-4.37114e-08 1 1 4.37114e-08 391 767)" fill="#FF4186"/>
<rect width="8" height="8" transform="matrix(-4.37114e-08 1 1 4.37114e-08 399 767)" fill="#FF4186"/>
<rect width="8" height="8" transform="matrix(-4.37114e-08 1 1 4.37114e-08 240 767)" fill="#FF4186"/>
<rect width="8" height="8" transform="matrix(-4.37114e-08 1 1 4.37114e-08 248 767)" fill="#FF4186"/>
<rect width="8" height="8" transform="matrix(-4.37114e-08 1 1 4.37114e-08 256 767)" fill="#FF4186"/>
<rect width="8" height="8" transform="matrix(-4.37114e-08 1 1 4.37114e-08 272 719)" fill="#FF4186"/>
<rect width="8" height="8" transform="matrix(-4.37114e-08 1 1 4.37114e-08 280 719)" fill="#FF4186"/>
<rect width="8" height="8" transform="matrix(-4.37114e-08 1 1 4.37114e-08 288 719)" fill="#FF4186"/>
<rect width="8" height="8" transform="matrix(-4.37114e-08 1 1 4.37114e-08 296 719)" fill="#FF4186"/>
<rect width="8" height="8" transform="matrix(-4.37114e-08 1 1 4.37114e-08 264 767)" fill="#FF4186"/>
<rect width="8" height="8" transform="matrix(-4.37114e-08 1 1 4.37114e-08 272 767)" fill="#FF4186"/>
<rect width="8" height="8" transform="matrix(-4.37114e-08 1 1 4.37114e-08 280 767)" fill="#FF4186"/>
<rect width="8" height="8" transform="matrix(-4.37114e-08 1 1 4.37114e-08 288 767)" fill="#FF4186"/>
<rect width="8" height="8" transform="matrix(-4.37114e-08 1 1 4.37114e-08 296 767)" fill="#FF4186"/>
<rect width="8" height="8" transform="matrix(-4.37114e-08 1 1 4.37114e-08 304 719)" fill="#FF4186"/>
<rect width="8" height="8" transform="matrix(-4.37114e-08 1 1 4.37114e-08 312 719)" fill="#FF4186"/>
<rect width="8" height="8" transform="matrix(-4.37114e-08 1 1 4.37114e-08 320 719)" fill="#FF4186"/>
<rect width="8" height="8" transform="matrix(-4.37114e-08 1 1 4.37114e-08 216 719)" fill="#FF4186"/>
<rect width="8" height="8" transform="matrix(-4.37114e-08 1 1 4.37114e-08 224 719)" fill="#FF4186"/>
<rect width="8" height="8" transform="matrix(-4.37114e-08 1 1 4.37114e-08 232 719)" fill="#FF4186"/>
<rect width="8" height="8" transform="matrix(-4.37114e-08 1 1 4.37114e-08 240 719)" fill="#FF4186"/>
<rect width="8" height="8" transform="matrix(-4.37114e-08 1 1 4.37114e-08 248 719)" fill="#FF4186"/>
<rect width="8" height="8" transform="matrix(-4.37114e-08 1 1 4.37114e-08 256 719)" fill="#FF4186"/>
<rect width="8" height="8" transform="matrix(-4.37114e-08 1 1 4.37114e-08 264 719)" fill="#FF4186"/>
<rect width="8" height="8" transform="matrix(-4.37114e-08 1 1 4.37114e-08 304 767)" fill="#FF4186"/>
<rect width="8" height="8" transform="matrix(-4.37114e-08 1 1 4.37114e-08 312 767)" fill="#FF4186"/>
<rect width="8" height="8" transform="matrix(-4.37114e-08 1 1 4.37114e-08 320 767)" fill="#FF4186"/>
<rect width="8" height="8" transform="matrix(-4.37114e-08 1 1 4.37114e-08 327 719)" fill="#FF4186"/>
<rect width="8" height="8" transform="matrix(-4.37114e-08 1 1 4.37114e-08 335 719)" fill="#FF4186"/>
<rect width="8" height="8" transform="matrix(-4.37114e-08 1 1 4.37114e-08 327 767)" fill="#FF4186"/>
<rect width="8" height="8" transform="matrix(-4.37114e-08 1 1 4.37114e-08 335 767)" fill="#FF4186"/>
<rect width="8" height="8" transform="matrix(-4.37114e-08 1 1 4.37114e-08 407 767)" fill="#FF4186"/>
<rect x="1759" y="440" width="8" height="8" fill="#FF4186"/>
<rect x="1759" y="448" width="8" height="8" fill="#FF4186"/>
<rect x="1759" y="456" width="8" height="8" fill="#FF4186"/>
<rect x="1759" y="464" width="8" height="8" fill="#FF4186"/>
<rect x="1759" y="472" width="8" height="8" fill="#FF4186"/>
<rect x="1759" y="480" width="8" height="8" fill="#FF4186"/>
<rect x="1759" y="488" width="8" height="8" fill="#FF4186"/>
<rect x="1759" y="496" width="8" height="8" fill="#FF4186"/>
<rect x="1759" y="504" width="8" height="8" fill="#FF4186"/>
<rect width="8" height="8" transform="matrix(1 0 0 -1 1759 759)" fill="#FF4186"/>
<rect width="8" height="8" transform="matrix(1 0 0 -1 1759 751)" fill="#FF4186"/>
<rect width="8" height="8" transform="matrix(1 0 0 -1 1759 743)" fill="#FF4186"/>
<rect width="8" height="8" transform="matrix(1 0 0 -1 1759 735)" fill="#FF4186"/>
<rect width="8" height="8" transform="matrix(1 0 0 -1 1759 727)" fill="#FF4186"/>
<rect width="8" height="8" transform="matrix(1 0 0 -1 1759 719)" fill="#FF4186"/>
<rect width="8" height="8" transform="matrix(1 0 0 -1 1711 584)" fill="#FF4186"/>
<rect width="8" height="8" transform="matrix(1 0 0 -1 1711 576)" fill="#FF4186"/>
<rect width="8" height="8" transform="matrix(1 0 0 -1 1711 568)" fill="#FF4186"/>
<rect width="8" height="8" transform="matrix(1 0 0 -1 1759 711)" fill="#FF4186"/>
<rect width="8" height="8" transform="matrix(1 0 0 -1 1759 703)" fill="#FF4186"/>
<rect width="8" height="8" transform="matrix(1 0 0 -1 1759 695)" fill="#FF4186"/>
<rect width="8" height="8" transform="matrix(1 0 0 -1 1759 584)" fill="#FF4186"/>
<rect width="8" height="8" transform="matrix(1 0 0 -1 1759 576)" fill="#FF4186"/>
<rect width="8" height="8" transform="matrix(1 0 0 -1 1759 568)" fill="#FF4186"/>
<rect width="8" height="8" transform="matrix(1 0 0 -1 1711 560)" fill="#FF4186"/>
<rect width="8" height="8" transform="matrix(1 0 0 -1 1711 552)" fill="#FF4186"/>
<rect width="8" height="8" transform="matrix(1 0 0 -1 1711 544)" fill="#FF4186"/>
<rect width="8" height="8" transform="matrix(1 0 0 -1 1711 536)" fill="#FF4186"/>
<rect width="8" height="8" transform="matrix(1 0 0 -1 1711 504)" fill="#FF4186"/>
<rect width="8" height="8" transform="matrix(1 0 0 -1 1711 496)" fill="#FF4186"/>
<rect width="8" height="8" transform="matrix(1 0 0 -1 1711 488)" fill="#FF4186"/>
<rect width="8" height="8" transform="matrix(1 0 0 -1 1711 528)" fill="#FF4186"/>
<rect width="8" height="8" transform="matrix(1 0 0 -1 1711 520)" fill="#FF4186"/>
<rect width="8" height="8" transform="matrix(1 0 0 -1 1711 512)" fill="#FF4186"/>
<rect width="8" height="8" transform="matrix(1 0 0 -1 1711 480)" fill="#FF4186"/>
<rect width="8" height="8" transform="matrix(1 0 0 -1 1711 472)" fill="#FF4186"/>
<rect width="8" height="8" transform="matrix(1 0 0 -1 1711 464)" fill="#FF4186"/>
<rect width="8" height="8" transform="matrix(1 0 0 -1 1711 456)" fill="#FF4186"/>
<rect width="8" height="8" transform="matrix(1 0 0 -1 1711 448)" fill="#FF4186"/>
<rect width="8" height="8" transform="matrix(1 0 0 -1 1759 560)" fill="#FF4186"/>
<rect width="8" height="8" transform="matrix(1 0 0 -1 1759 552)" fill="#FF4186"/>
<rect x="1719" y="392" width="8" height="8" fill="#FF4186"/>
<rect x="1727" y="384" width="8" height="8" fill="#FF4186"/>
<rect x="1735" y="384" width="8" height="8" fill="#FF4186"/>
<rect x="1743" y="384" width="8" height="8" fill="#FF4186"/>
<rect x="1751" y="392" width="8" height="8" fill="#FF4186"/>
<rect x="1711" y="400" width="8" height="8" fill="#FF4186"/>
<rect x="1711" y="408" width="8" height="8" fill="#FF4186"/>
<rect x="1711" y="416" width="8" height="8" fill="#FF4186"/>
<rect x="1711" y="424" width="8" height="8" fill="#FF4186"/>
<rect x="1711" y="432" width="8" height="8" fill="#FF4186"/>
<rect x="1759" y="400" width="8" height="8" fill="#FF4186"/>
<rect x="1759" y="408" width="8" height="8" fill="#FF4186"/>
<rect x="1759" y="416" width="8" height="8" fill="#FF4186"/>
<rect x="1759" y="424" width="8" height="8" fill="#FF4186"/>
<rect x="1759" y="432" width="8" height="8" fill="#FF4186"/>
<rect width="8" height="8" transform="matrix(1 0 0 -1 1759 544)" fill="#FF4186"/>
<rect width="8" height="8" transform="matrix(1 0 0 -1 1759 536)" fill="#FF4186"/>
<rect width="8" height="8" transform="matrix(1 0 0 -1 1759 528)" fill="#FF4186"/>
<rect width="8" height="8" transform="matrix(1 0 0 -1 1759 687)" fill="#FF4186"/>
<rect width="8" height="8" transform="matrix(1 0 0 -1 1759 679)" fill="#FF4186"/>
<rect width="8" height="8" transform="matrix(1 0 0 -1 1759 671)" fill="#FF4186"/>
<rect width="8" height="8" transform="matrix(1 0 0 -1 1711 655)" fill="#FF4186"/>
<rect width="8" height="8" transform="matrix(1 0 0 -1 1711 647)" fill="#FF4186"/>
<rect width="8" height="8" transform="matrix(1 0 0 -1 1711 639)" fill="#FF4186"/>
<rect width="8" height="8" transform="matrix(1 0 0 -1 1711 631)" fill="#FF4186"/>
<rect width="8" height="8" transform="matrix(1 0 0 -1 1759 663)" fill="#FF4186"/>
<rect width="8" height="8" transform="matrix(1 0 0 -1 1759 655)" fill="#FF4186"/>
<rect width="8" height="8" transform="matrix(1 0 0 -1 1759 647)" fill="#FF4186"/>
<rect width="8" height="8" transform="matrix(1 0 0 -1 1759 639)" fill="#FF4186"/>
<rect width="8" height="8" transform="matrix(1 0 0 -1 1759 631)" fill="#FF4186"/>
<rect width="8" height="8" transform="matrix(1 0 0 -1 1711 623)" fill="#FF4186"/>
<rect width="8" height="8" transform="matrix(1 0 0 -1 1711 615)" fill="#FF4186"/>
<rect width="8" height="8" transform="matrix(1 0 0 -1 1711 703)" fill="#FF4186"/>
<rect width="8" height="8" transform="matrix(1 0 0 -1 1711 711)" fill="#FF4186"/>
<rect width="8" height="8" transform="matrix(1 0 0 -1 1703 719)" fill="#FF4186"/>
<rect width="8" height="8" transform="matrix(1 0 0 -1 1711 695)" fill="#FF4186"/>
<rect width="8" height="8" transform="matrix(1 0 0 -1 1711 687)" fill="#FF4186"/>
<rect width="8" height="8" transform="matrix(1 0 0 -1 1711 679)" fill="#FF4186"/>
<rect width="8" height="8" transform="matrix(1 0 0 -1 1711 671)" fill="#FF4186"/>
<rect width="8" height="8" transform="matrix(1 0 0 -1 1711 663)" fill="#FF4186"/>
<rect width="8" height="8" transform="matrix(1 0 0 -1 1711 607)" fill="#FF4186"/>
<rect width="8" height="8" transform="matrix(1 0 0 -1 1759 623)" fill="#FF4186"/>
<rect width="8" height="8" transform="matrix(1 0 0 -1 1759 615)" fill="#FF4186"/>
<rect width="8" height="8" transform="matrix(1 0 0 -1 1759 607)" fill="#FF4186"/>
<rect width="8" height="8" transform="matrix(1 0 0 -1 1711 600)" fill="#FF4186"/>
<rect width="8" height="8" transform="matrix(1 0 0 -1 1711 592)" fill="#FF4186"/>
<rect width="8" height="8" transform="matrix(1 0 0 -1 1759 600)" fill="#FF4186"/>
<rect width="8" height="8" transform="matrix(1 0 0 -1 1759 592)" fill="#FF4186"/>
<rect width="8" height="8" transform="matrix(1 0 0 -1 1759 520)" fill="#FF4186"/>
<rect width="8" height="8" transform="matrix(4.37114e-08 1 1 -4.37114e-08 1432 767)" fill="#FF4186"/>
<rect width="8" height="8" transform="matrix(4.37114e-08 1 1 -4.37114e-08 1440 767)" fill="#FF4186"/>
<rect width="8" height="8" transform="matrix(4.37114e-08 1 1 -4.37114e-08 1448 767)" fill="#FF4186"/>
<rect width="8" height="8" transform="matrix(4.37114e-08 1 1 -4.37114e-08 1456 767)" fill="#FF4186"/>
<rect width="8" height="8" transform="matrix(4.37114e-08 1 1 -4.37114e-08 1464 767)" fill="#FF4186"/>
<rect width="8" height="8" transform="matrix(4.37114e-08 1 1 -4.37114e-08 1472 767)" fill="#FF4186"/>
<rect width="8" height="8" transform="matrix(4.37114e-08 1 1 -4.37114e-08 1480 767)" fill="#FF4186"/>
<rect width="8" height="8" transform="matrix(4.37114e-08 1 1 -4.37114e-08 1488 767)" fill="#FF4186"/>
<rect width="8" height="8" transform="matrix(4.37114e-08 1 1 -4.37114e-08 1496 767)" fill="#FF4186"/>
<rect x="1751" y="767" width="8" height="8" transform="rotate(90 1751 767)" fill="#FF4186"/>
<rect x="1759" y="759" width="8" height="8" transform="rotate(90 1759 759)" fill="#FF4186"/>
<rect x="1743" y="767" width="8" height="8" transform="rotate(90 1743 767)" fill="#FF4186"/>
<rect x="1735" y="767" width="8" height="8" transform="rotate(90 1735 767)" fill="#FF4186"/>
<rect x="1727" y="767" width="8" height="8" transform="rotate(90 1727 767)" fill="#FF4186"/>
<rect x="1719" y="767" width="8" height="8" transform="rotate(90 1719 767)" fill="#FF4186"/>
<rect x="1711" y="767" width="8" height="8" transform="rotate(90 1711 767)" fill="#FF4186"/>
<rect x="1576" y="719" width="8" height="8" transform="rotate(90 1576 719)" fill="#FF4186"/>
<rect x="1568" y="719" width="8" height="8" transform="rotate(90 1568 719)" fill="#FF4186"/>
<rect x="1560" y="719" width="8" height="8" transform="rotate(90 1560 719)" fill="#FF4186"/>
<rect x="1703" y="767" width="8" height="8" transform="rotate(90 1703 767)" fill="#FF4186"/>
<rect x="1695" y="767" width="8" height="8" transform="rotate(90 1695 767)" fill="#FF4186"/>
<rect x="1687" y="767" width="8" height="8" transform="rotate(90 1687 767)" fill="#FF4186"/>
<rect x="1576" y="767" width="8" height="8" transform="rotate(90 1576 767)" fill="#FF4186"/>
<rect x="1568" y="767" width="8" height="8" transform="rotate(90 1568 767)" fill="#FF4186"/>
<rect x="1560" y="767" width="8" height="8" transform="rotate(90 1560 767)" fill="#FF4186"/>
<rect x="1552" y="719" width="8" height="8" transform="rotate(90 1552 719)" fill="#FF4186"/>
<rect x="1544" y="719" width="8" height="8" transform="rotate(90 1544 719)" fill="#FF4186"/>
<rect x="1536" y="719" width="8" height="8" transform="rotate(90 1536 719)" fill="#FF4186"/>
<rect x="1528" y="719" width="8" height="8" transform="rotate(90 1528 719)" fill="#FF4186"/>
<rect x="1496" y="719" width="8" height="8" transform="rotate(90 1496 719)" fill="#FF4186"/>
<rect x="1488" y="719" width="8" height="8" transform="rotate(90 1488 719)" fill="#FF4186"/>
<rect x="1480" y="719" width="8" height="8" transform="rotate(90 1480 719)" fill="#FF4186"/>
<rect x="1520" y="719" width="8" height="8" transform="rotate(90 1520 719)" fill="#FF4186"/>
<rect x="1512" y="719" width="8" height="8" transform="rotate(90 1512 719)" fill="#FF4186"/>
<rect x="1504" y="719" width="8" height="8" transform="rotate(90 1504 719)" fill="#FF4186"/>
<rect x="1472" y="719" width="8" height="8" transform="rotate(90 1472 719)" fill="#FF4186"/>
<rect x="1464" y="719" width="8" height="8" transform="rotate(90 1464 719)" fill="#FF4186"/>
<rect x="1456" y="719" width="8" height="8" transform="rotate(90 1456 719)" fill="#FF4186"/>
<rect x="1448" y="719" width="8" height="8" transform="rotate(90 1448 719)" fill="#FF4186"/>
<rect x="1440" y="719" width="8" height="8" transform="rotate(90 1440 719)" fill="#FF4186"/>
<rect x="1552" y="767" width="8" height="8" transform="rotate(90 1552 767)" fill="#FF4186"/>
<rect x="1544" y="767" width="8" height="8" transform="rotate(90 1544 767)" fill="#FF4186"/>
<rect width="8" height="8" transform="matrix(4.37114e-08 1 1 -4.37114e-08 1384 727)" fill="#FF4186"/>
<rect width="8" height="8" transform="matrix(4.37114e-08 1 1 -4.37114e-08 1376 735)" fill="#FF4186"/>
<rect width="8" height="8" transform="matrix(4.37114e-08 1 1 -4.37114e-08 1376 743)" fill="#FF4186"/>
<rect width="8" height="8" transform="matrix(4.37114e-08 1 1 -4.37114e-08 1376 751)" fill="#FF4186"/>
<rect width="8" height="8" transform="matrix(4.37114e-08 1 1 -4.37114e-08 1384 759)" fill="#FF4186"/>
<rect width="8" height="8" transform="matrix(4.37114e-08 1 1 -4.37114e-08 1392 719)" fill="#FF4186"/>
<rect width="8" height="8" transform="matrix(4.37114e-08 1 1 -4.37114e-08 1400 719)" fill="#FF4186"/>
<rect width="8" height="8" transform="matrix(4.37114e-08 1 1 -4.37114e-08 1408 719)" fill="#FF4186"/>
<rect width="8" height="8" transform="matrix(4.37114e-08 1 1 -4.37114e-08 1416 719)" fill="#FF4186"/>
<rect width="8" height="8" transform="matrix(4.37114e-08 1 1 -4.37114e-08 1424 719)" fill="#FF4186"/>
<rect width="8" height="8" transform="matrix(4.37114e-08 1 1 -4.37114e-08 1392 767)" fill="#FF4186"/>
<rect width="8" height="8" transform="matrix(4.37114e-08 1 1 -4.37114e-08 1400 767)" fill="#FF4186"/>
<rect width="8" height="8" transform="matrix(4.37114e-08 1 1 -4.37114e-08 1408 767)" fill="#FF4186"/>
<rect width="8" height="8" transform="matrix(4.37114e-08 1 1 -4.37114e-08 1416 767)" fill="#FF4186"/>
<rect width="8" height="8" transform="matrix(4.37114e-08 1 1 -4.37114e-08 1424 767)" fill="#FF4186"/>
<rect x="1536" y="767" width="8" height="8" transform="rotate(90 1536 767)" fill="#FF4186"/>
<rect x="1528" y="767" width="8" height="8" transform="rotate(90 1528 767)" fill="#FF4186"/>
<rect x="1520" y="767" width="8" height="8" transform="rotate(90 1520 767)" fill="#FF4186"/>
<rect x="1679" y="767" width="8" height="8" transform="rotate(90 1679 767)" fill="#FF4186"/>
<rect x="1671" y="767" width="8" height="8" transform="rotate(90 1671 767)" fill="#FF4186"/>
<rect x="1663" y="767" width="8" height="8" transform="rotate(90 1663 767)" fill="#FF4186"/>
<rect x="1647" y="719" width="8" height="8" transform="rotate(90 1647 719)" fill="#FF4186"/>
<rect x="1639" y="719" width="8" height="8" transform="rotate(90 1639 719)" fill="#FF4186"/>
<rect x="1631" y="719" width="8" height="8" transform="rotate(90 1631 719)" fill="#FF4186"/>
<rect x="1623" y="719" width="8" height="8" transform="rotate(90 1623 719)" fill="#FF4186"/>
<rect x="1655" y="767" width="8" height="8" transform="rotate(90 1655 767)" fill="#FF4186"/>
<rect x="1647" y="767" width="8" height="8" transform="rotate(90 1647 767)" fill="#FF4186"/>
<rect x="1639" y="767" width="8" height="8" transform="rotate(90 1639 767)" fill="#FF4186"/>
<rect x="1631" y="767" width="8" height="8" transform="rotate(90 1631 767)" fill="#FF4186"/>
<rect x="1623" y="767" width="8" height="8" transform="rotate(90 1623 767)" fill="#FF4186"/>
<rect x="1615" y="719" width="8" height="8" transform="rotate(90 1615 719)" fill="#FF4186"/>
<rect x="1607" y="719" width="8" height="8" transform="rotate(90 1607 719)" fill="#FF4186"/>
<rect x="1599" y="719" width="8" height="8" transform="rotate(90 1599 719)" fill="#FF4186"/>
<rect x="1703" y="719" width="8" height="8" transform="rotate(90 1703 719)" fill="#FF4186"/>
<rect x="1695" y="719" width="8" height="8" transform="rotate(90 1695 719)" fill="#FF4186"/>
<rect x="1687" y="719" width="8" height="8" transform="rotate(90 1687 719)" fill="#FF4186"/>
<rect x="1679" y="719" width="8" height="8" transform="rotate(90 1679 719)" fill="#FF4186"/>
<rect x="1671" y="719" width="8" height="8" transform="rotate(90 1671 719)" fill="#FF4186"/>
<rect x="1663" y="719" width="8" height="8" transform="rotate(90 1663 719)" fill="#FF4186"/>
<rect x="1655" y="719" width="8" height="8" transform="rotate(90 1655 719)" fill="#FF4186"/>
<rect x="1615" y="767" width="8" height="8" transform="rotate(90 1615 767)" fill="#FF4186"/>
<rect x="1607" y="767" width="8" height="8" transform="rotate(90 1607 767)" fill="#FF4186"/>
<rect x="1599" y="767" width="8" height="8" transform="rotate(90 1599 767)" fill="#FF4186"/>
<rect x="1592" y="719" width="8" height="8" transform="rotate(90 1592 719)" fill="#FF4186"/>
<rect x="1584" y="719" width="8" height="8" transform="rotate(90 1584 719)" fill="#FF4186"/>
<rect x="1592" y="767" width="8" height="8" transform="rotate(90 1592 767)" fill="#FF4186"/>
<rect x="1584" y="767" width="8" height="8" transform="rotate(90 1584 767)" fill="#FF4186"/>
<rect x="1512" y="767" width="8" height="8" transform="rotate(90 1512 767)" fill="#FF4186"/>
</g>
<g opacity="0.4">
<rect x="783" y="735" width="8" height="8" transform="rotate(-90 783 735)" fill="#FF4186"/>
<rect x="791" y="727" width="8" height="8" transform="rotate(-90 791 727)" fill="#FF4186"/>
<rect x="799" y="727" width="8" height="8" transform="rotate(-90 799 727)" fill="#FF4186"/>
<rect x="775" y="743" width="8" height="8" transform="rotate(-90 775 743)" fill="#FF4186"/>
<rect x="775" y="751" width="8" height="8" transform="rotate(-90 775 751)" fill="#FF4186"/>
<rect x="775" y="759" width="8" height="8" transform="rotate(-90 775 759)" fill="#FF4186"/>
<rect x="783" y="767" width="8" height="8" transform="rotate(-90 783 767)" fill="#FF4186"/>
<rect x="791" y="775" width="8" height="8" transform="rotate(-90 791 775)" fill="#FF4186"/>
<rect x="1135" y="743" width="8" height="8" transform="rotate(-90 1135 743)" fill="#FF4186"/>
<rect x="1135" y="751" width="8" height="8" transform="rotate(-90 1135 751)" fill="#FF4186"/>
<rect x="1135" y="759" width="8" height="8" transform="rotate(-90 1135 759)" fill="#FF4186"/>
<rect x="1127" y="767" width="8" height="8" transform="rotate(-90 1127 767)" fill="#FF4186"/>
<rect x="1119" y="775" width="8" height="8" transform="rotate(-90 1119 775)" fill="#FF4186"/>
<rect x="807" y="727" width="8" height="8" transform="rotate(-90 807 727)" fill="#FF4186"/>
<rect x="815" y="727" width="8" height="8" transform="rotate(-90 815 727)" fill="#FF4186"/>
<rect x="823" y="727" width="8" height="8" transform="rotate(-90 823 727)" fill="#FF4186"/>
<rect x="831" y="727" width="8" height="8" transform="rotate(-90 831 727)" fill="#FF4186"/>
<rect x="839" y="727" width="8" height="8" transform="rotate(-90 839 727)" fill="#FF4186"/>
<rect x="847" y="727" width="8" height="8" transform="rotate(-90 847 727)" fill="#FF4186"/>
<rect x="855" y="727" width="8" height="8" transform="rotate(-90 855 727)" fill="#FF4186"/>
<rect x="863" y="727" width="8" height="8" transform="rotate(-90 863 727)" fill="#FF4186"/>
<rect x="871" y="727" width="8" height="8" transform="rotate(-90 871 727)" fill="#FF4186"/>
<rect width="8" height="8" transform="matrix(-4.37114e-08 -1 -1 4.37114e-08 1135 735)" fill="#FF4186"/>
<rect width="8" height="8" transform="matrix(-4.37114e-08 -1 -1 4.37114e-08 1127 727)" fill="#FF4186"/>
<rect width="8" height="8" transform="matrix(-4.37114e-08 -1 -1 4.37114e-08 1119 727)" fill="#FF4186"/>
<rect width="8" height="8" transform="matrix(-4.37114e-08 -1 -1 4.37114e-08 1111 727)" fill="#FF4186"/>
<rect width="8" height="8" transform="matrix(-4.37114e-08 -1 -1 4.37114e-08 1103 727)" fill="#FF4186"/>
<rect width="8" height="8" transform="matrix(-4.37114e-08 -1 -1 4.37114e-08 1095 727)" fill="#FF4186"/>
<rect width="8" height="8" transform="matrix(-4.37114e-08 -1 -1 4.37114e-08 1087 727)" fill="#FF4186"/>
<rect width="8" height="8" transform="matrix(-4.37114e-08 -1 -1 4.37114e-08 1079 727)" fill="#FF4186"/>
<rect width="8" height="8" transform="matrix(-4.37114e-08 -1 -1 4.37114e-08 1071 727)" fill="#FF4186"/>
<rect width="8" height="8" transform="matrix(-4.37114e-08 -1 -1 4.37114e-08 1063 727)" fill="#FF4186"/>
<rect width="8" height="8" transform="matrix(-4.37114e-08 -1 -1 4.37114e-08 911 727)" fill="#FF4186"/>
<rect width="8" height="8" transform="matrix(-4.37114e-08 -1 -1 4.37114e-08 903 727)" fill="#FF4186"/>
<rect width="8" height="8" transform="matrix(-4.37114e-08 -1 -1 4.37114e-08 895 727)" fill="#FF4186"/>
<rect width="8" height="8" transform="matrix(-4.37114e-08 -1 -1 4.37114e-08 887 727)" fill="#FF4186"/>
<rect x="823" y="775" width="8" height="8" transform="rotate(-90 823 775)" fill="#FF4186"/>
<rect x="831" y="775" width="8" height="8" transform="rotate(-90 831 775)" fill="#FF4186"/>
<rect x="839" y="775" width="8" height="8" transform="rotate(-90 839 775)" fill="#FF4186"/>
<rect x="799" y="775" width="8" height="8" transform="rotate(-90 799 775)" fill="#FF4186"/>
<rect x="807" y="775" width="8" height="8" transform="rotate(-90 807 775)" fill="#FF4186"/>
<rect x="815" y="775" width="8" height="8" transform="rotate(-90 815 775)" fill="#FF4186"/>
<rect x="847" y="775" width="8" height="8" transform="rotate(-90 847 775)" fill="#FF4186"/>
<rect x="855" y="775" width="8" height="8" transform="rotate(-90 855 775)" fill="#FF4186"/>
<rect x="863" y="775" width="8" height="8" transform="rotate(-90 863 775)" fill="#FF4186"/>
<rect x="871" y="775" width="8" height="8" transform="rotate(-90 871 775)" fill="#FF4186"/>
<rect width="8" height="8" transform="matrix(-4.37114e-08 -1 -1 4.37114e-08 1103 775)" fill="#FF4186"/>
<rect width="8" height="8" transform="matrix(-4.37114e-08 -1 -1 4.37114e-08 1119 775)" fill="#FF4186"/>
<rect width="8" height="8" transform="matrix(-4.37114e-08 -1 -1 4.37114e-08 1111 775)" fill="#FF4186"/>
<rect width="8" height="8" transform="matrix(-4.37114e-08 -1 -1 4.37114e-08 1095 775)" fill="#FF4186"/>
<rect width="8" height="8" transform="matrix(-4.37114e-08 -1 -1 4.37114e-08 1087 775)" fill="#FF4186"/>
<rect width="8" height="8" transform="matrix(-4.37114e-08 -1 -1 4.37114e-08 1079 775)" fill="#FF4186"/>
<rect width="8" height="8" transform="matrix(-4.37114e-08 -1 -1 4.37114e-08 1071 775)" fill="#FF4186"/>
<rect width="8" height="8" transform="matrix(-4.37114e-08 -1 -1 4.37114e-08 1063 775)" fill="#FF4186"/>
<rect width="8" height="8" transform="matrix(-4.37114e-08 -1 -1 4.37114e-08 911 775)" fill="#FF4186"/>
<rect width="8" height="8" transform="matrix(-4.37114e-08 -1 -1 4.37114e-08 903 775)" fill="#FF4186"/>
<rect width="8" height="8" transform="matrix(-4.37114e-08 -1 -1 4.37114e-08 895 775)" fill="#FF4186"/>
<rect width="8" height="8" transform="matrix(-4.37114e-08 -1 -1 4.37114e-08 887 775)" fill="#FF4186"/>
<rect x="911" y="727" width="8" height="8" transform="rotate(-90 911 727)" fill="#FF4186"/>
<rect x="919" y="727" width="8" height="8" transform="rotate(-90 919 727)" fill="#FF4186"/>
<rect x="927" y="727" width="8" height="8" transform="rotate(-90 927 727)" fill="#FF4186"/>
<rect width="8" height="8" transform="matrix(-4.37114e-08 -1 -1 4.37114e-08 967 727)" fill="#FF4186"/>
<rect width="8" height="8" transform="matrix(-4.37114e-08 -1 -1 4.37114e-08 959 727)" fill="#FF4186"/>
<rect width="8" height="8" transform="matrix(-4.37114e-08 -1 -1 4.37114e-08 951 727)" fill="#FF4186"/>
<rect width="8" height="8" transform="matrix(-4.37114e-08 -1 -1 4.37114e-08 943 727)" fill="#FF4186"/>
<rect x="911" y="775" width="8" height="8" transform="rotate(-90 911 775)" fill="#FF4186"/>
<rect x="919" y="775" width="8" height="8" transform="rotate(-90 919 775)" fill="#FF4186"/>
<rect x="927" y="775" width="8" height="8" transform="rotate(-90 927 775)" fill="#FF4186"/>
<rect width="8" height="8" transform="matrix(-4.37114e-08 -1 -1 4.37114e-08 967 775)" fill="#FF4186"/>
<rect width="8" height="8" transform="matrix(-4.37114e-08 -1 -1 4.37114e-08 959 775)" fill="#FF4186"/>
<rect width="8" height="8" transform="matrix(-4.37114e-08 -1 -1 4.37114e-08 951 775)" fill="#FF4186"/>
<rect width="8" height="8" transform="matrix(-4.37114e-08 -1 -1 4.37114e-08 943 775)" fill="#FF4186"/>
<rect x="967" y="727" width="8" height="8" transform="rotate(-90 967 727)" fill="#FF4186"/>
<rect x="975" y="727" width="8" height="8" transform="rotate(-90 975 727)" fill="#FF4186"/>
<rect x="983" y="727" width="8" height="8" transform="rotate(-90 983 727)" fill="#FF4186"/>
<rect width="8" height="8" transform="matrix(-4.37114e-08 -1 -1 4.37114e-08 1023 727)" fill="#FF4186"/>
<rect width="8" height="8" transform="matrix(-4.37114e-08 -1 -1 4.37114e-08 1015 727)" fill="#FF4186"/>
<rect width="8" height="8" transform="matrix(-4.37114e-08 -1 -1 4.37114e-08 1007 727)" fill="#FF4186"/>
<rect width="8" height="8" transform="matrix(-4.37114e-08 -1 -1 4.37114e-08 999 727)" fill="#FF4186"/>
<rect x="967" y="775" width="8" height="8" transform="rotate(-90 967 775)" fill="#FF4186"/>
<rect x="975" y="775" width="8" height="8" transform="rotate(-90 975 775)" fill="#FF4186"/>
<rect x="983" y="775" width="8" height="8" transform="rotate(-90 983 775)" fill="#FF4186"/>
<rect width="8" height="8" transform="matrix(-4.37114e-08 -1 -1 4.37114e-08 1023 775)" fill="#FF4186"/>
<rect width="8" height="8" transform="matrix(-4.37114e-08 -1 -1 4.37114e-08 1015 775)" fill="#FF4186"/>
<rect width="8" height="8" transform="matrix(-4.37114e-08 -1 -1 4.37114e-08 1039 727)" fill="#FF4186"/>
<rect width="8" height="8" transform="matrix(-4.37114e-08 -1 -1 4.37114e-08 1031 727)" fill="#FF4186"/>
<rect width="8" height="8" transform="matrix(-4.37114e-08 -1 -1 4.37114e-08 1039 775)" fill="#FF4186"/>
<rect width="8" height="8" transform="matrix(-4.37114e-08 -1 -1 4.37114e-08 1031 775)" fill="#FF4186"/>
<rect width="8" height="8" transform="matrix(-4.37114e-08 -1 -1 4.37114e-08 1055 727)" fill="#FF4186"/>
<rect width="8" height="8" transform="matrix(-4.37114e-08 -1 -1 4.37114e-08 1047 727)" fill="#FF4186"/>
<rect width="8" height="8" transform="matrix(-4.37114e-08 -1 -1 4.37114e-08 1055 775)" fill="#FF4186"/>
<rect width="8" height="8" transform="matrix(-4.37114e-08 -1 -1 4.37114e-08 1047 775)" fill="#FF4186"/>
<rect width="8" height="8" transform="matrix(-4.37114e-08 -1 -1 4.37114e-08 1007 775)" fill="#FF4186"/>
<rect width="8" height="8" transform="matrix(-4.37114e-08 -1 -1 4.37114e-08 999 775)" fill="#FF4186"/>
</g>
<path fill-rule="evenodd" clip-rule="evenodd" d="M437 1H957.5H1478L1128.72 720H957.5H786.283L437 1Z" fill="url(#paint0_linear_317_2364)" fill-opacity="0.51"/>
</g>
<g clip-path="url(#clip1_317_2364)">
<rect x="632" y="744" width="20" height="20" fill="#C3CBDE" fill-opacity="0.5"/>
<rect x="632" y="824" width="20" height="20" fill="#C3CBDE" fill-opacity="0.7"/>
<rect x="632" y="904" width="20" height="20" fill="#C3CBDE"/>
<rect x="712" y="904" width="20" height="20" fill="#C3CBDE"/>
<rect x="792" y="904" width="20" height="20" fill="#C3CBDE"/>
<rect x="872" y="904" width="20" height="20" fill="#C3CBDE"/>
<rect x="952" y="904" width="20" height="20" fill="#C3CBDE"/>
<rect x="632" y="664" width="20" height="20" fill="#C3CBDE" fill-opacity="0.3"/>
</g>
<path d="M668 688L668 700L662 700L662 706L650 706L650 712L620 712L620 706L608 706L608 700L602 700L602 688L596 688L596 658L602 658L602 646L608 646L608 640L620 640L620 634L650 634L650 640L662 640L662 646L668 646L668 658L656 658L656 664L638 664L638 670L626 670L626 676L638 676L638 682L656 682L656 688L668 688Z" fill="#FFFF00"/>
<defs>
<linearGradient id="paint0_linear_317_2364" x1="957.5" y1="27" x2="957.5" y2="720" gradientUnits="userSpaceOnUse">
<stop stop-color="white" stop-opacity="0"/>
<stop offset="1" stop-color="white" stop-opacity="0.4"/>
</linearGradient>
<clipPath id="clip0_317_2364">
<rect width="1615" height="775" fill="white" transform="translate(152)"/>
</clipPath>
<clipPath id="clip1_317_2364">
<rect width="340" height="260" fill="white" transform="translate(632 664)"/>
</clipPath>
</defs>
</svg>
